<?xml version="1.0" standalone="no"?>
<!DOCTYPE svg PUBLIC "-//W3C//DTD SVG 20010904//EN"
 "http://www.w3.org/TR/2001/REC-SVG-20010904/DTD/svg10.dtd">
<svg version="1.0" xmlns="http://www.w3.org/2000/svg"
 width="1049.000000pt" height="1049.000000pt" viewBox="0 0 1049.000000 1049.000000"
 preserveAspectRatio="xMidYMid meet">
<metadata>
Created by potrace 1.14, written by Peter Selinger 2001-2017
</metadata>
<g transform="translate(0.000000,1049.000000) scale(0.100000,-0.100000)"
fill="#000000" stroke="none">
<path d="M4170 10483 c-301 -46 -557 -280 -630 -576 -34 -137 -31 -238 16
-592 3 -22 7 -53 9 -70 2 -16 9 -64 14 -105 6 -41 13 -99 17 -129 3 -30 7 -61
9 -70 1 -9 6 -52 10 -96 4 -44 9 -100 11 -125 2 -25 6 -63 9 -85 2 -22 7 -76
10 -120 3 -44 8 -98 10 -120 26 -255 26 -961 0 -1116 -2 -13 -7 -51 -10 -84
-4 -33 -8 -71 -10 -85 -2 -22 -18 -112 -29 -165 -42 -205 -91 -372 -163 -560
-100 -259 -269 -575 -407 -761 -17 -23 -40 -55 -51 -70 -64 -89 -183 -233
-305 -369 -167 -185 -487 -479 -669 -613 -42 -31 -100 -74 -129 -96 -72 -53
-154 -154 -201 -246 -102 -200 -113 -431 -31 -637 120 -299 404 -489 721 -485
114 2 159 11 324 69 180 62 505 135 700 157 22 3 67 8 100 12 109 12 384 11
487 -3 117 -15 128 -22 259 -174 371 -429 871 -1388 1293 -2479 48 -124 99
-247 113 -274 99 -194 291 -338 518 -390 93 -21 277 -17 360 8 261 78 459 268
534 511 52 166 49 302 -10 505 -31 108 -124 465 -133 510 -2 14 -18 88 -35
165 -16 77 -32 154 -35 170 -13 69 -38 212 -42 240 -2 17 -6 41 -9 55 -3 14
-8 45 -11 70 -3 25 -8 54 -10 65 -2 11 -6 43 -9 70 -4 28 -8 61 -10 75 -2 14
-7 57 -10 95 -3 39 -8 84 -10 100 -25 192 -25 684 0 824 1 9 6 39 10 66 16
116 56 228 106 301 264 384 896 875 1496 1161 76 36 161 80 188 98 148 95 261
246 315 420 27 88 33 131 33 225 -1 361 -253 674 -610 756 -56 13 -258 12
-323 -2 -36 -7 -89 -16 -118 -19 -29 -4 -63 -8 -75 -11 -123 -23 -723 -23
-847 1 -9 2 -41 6 -71 10 -107 13 -203 29 -295 50 -34 8 -75 17 -90 20 -16 3
-33 7 -39 9 -5 1 -30 8 -55 15 -43 12 -177 58 -285 97 -103 39 -236 203 -359
446 -126 249 -192 424 -332 880 -31 102 -136 536 -160 662 -2 11 -6 32 -9 46
-3 14 -7 36 -10 50 -8 43 -26 134 -31 157 -2 13 -6 35 -9 50 -2 16 -13 84 -24
153 -21 130 -26 169 -36 260 -4 30 -8 66 -10 80 -2 14 -7 50 -10 80 -3 30 -8
66 -10 80 -2 14 -7 46 -10 72 -15 130 -27 197 -51 267 -83 250 -302 447 -559
501 -73 16 -222 22 -285 13z m820 -4924 c15 -17 174 -131 225 -161 139 -84
341 -171 549 -237 55 -18 105 -35 112 -39 8 -5 -26 -51 -98 -137 -195 -232
-338 -458 -414 -658 l-26 -67 -91 91 c-91 91 -230 208 -317 266 -135 92 -351
184 -497 213 l-62 12 24 37 c36 55 129 203 141 226 6 11 37 67 69 125 67 120
202 401 220 458 6 22 11 20 83 -50 43 -40 79 -76 82 -79z"/>
</g>
</svg>
