<svg fill="none" xmlns="http://www.w3.org/2000/svg" viewBox="102.3 336.45 867.57 403.03">
<path fill-rule="evenodd" clip-rule="evenodd" d="M819.049 339.604C819.049 341.341 817.64 342.75 815.903 342.75C814.165 342.75 812.757 341.341 812.757 339.604C812.757 337.867 814.165 336.458 815.903 336.458C817.64 336.458 819.049 337.867 819.049 339.604ZM705.281 392.155C708.469 392.155 711.053 389.571 711.053 386.383C711.053 383.196 708.469 380.612 705.281 380.612C702.094 380.612 699.51 383.196 699.51 386.383C699.51 389.571 702.094 392.155 705.281 392.155ZM815.269 407.093C816.74 407.855 817.315 409.666 816.553 411.137C809.48 424.793 805.169 444.082 802.648 463.716C800.136 483.281 799.436 502.89 799.436 517.002C799.436 518.318 799.439 519.627 799.445 520.93C799.446 520.952 799.446 520.974 799.446 520.996C799.446 521.012 799.446 521.028 799.446 521.044L799.446 521.058L799.446 521.079C799.564 545.401 800.744 567.295 802.896 583.06C803.977 590.977 805.284 597.193 806.761 601.362C807.505 603.464 808.228 604.853 808.855 605.662C809.148 606.041 809.348 606.205 809.449 606.271C809.538 606.243 809.711 606.175 809.976 606.012C810.421 605.735 810.943 605.298 811.5 604.723C812.62 603.564 813.577 602.163 814.024 601.358C814.828 599.91 816.655 599.388 818.103 600.193C819.551 600.998 820.073 602.824 819.268 604.272C818.596 605.483 817.336 607.319 815.813 608.894C815.048 609.685 814.142 610.489 813.137 611.112C812.155 611.72 810.863 612.29 809.388 612.29C807.034 612.29 805.289 610.857 804.112 609.337C802.919 607.799 801.941 605.725 801.105 603.366C799.422 598.615 798.05 591.919 796.951 583.872C794.94 569.14 793.778 549.358 793.501 527.414C790.16 530.122 785.588 533.669 780.32 537.393C768.951 545.431 756.103 549.818 744.505 550.1C738.176 550.255 734.046 547.917 731.581 544.795C731.081 544.162 730.66 543.51 730.308 542.859C728.421 544.743 726.114 546.736 723.62 548.554C718.976 551.939 713.121 555.134 707.558 555.579C703.197 555.928 699.783 555.257 696.991 554.002C694.233 552.761 692.265 551.028 690.748 549.59C690.474 549.329 690.222 549.089 689.99 548.866L689.978 548.855C688.802 547.729 688.118 547.074 687.361 546.682C686.844 546.414 686.233 546.223 684.859 546.822C683.099 547.588 681.414 548.716 679.637 550.092C678.75 550.778 677.87 551.503 676.948 552.262L676.862 552.333L676.86 552.335C675.976 553.063 675.054 553.824 674.11 554.56C670.209 557.602 665.505 560.586 659.153 560.586C655.796 560.586 653.302 559.99 651.294 559.059C649.585 558.266 648.317 557.255 647.427 556.545C647.303 556.447 647.186 556.354 647.077 556.268C646.129 555.526 645.71 555.31 645.215 555.237C644.666 555.157 643.559 555.204 641.275 556.166C637.302 557.839 634.514 561.945 631.964 566.483C631.665 567.015 631.363 567.563 631.061 568.114L631.06 568.116L631.059 568.117C630.177 569.722 629.287 571.341 628.434 572.598C627.845 573.464 627.146 574.361 626.309 575.061C625.457 575.776 624.262 576.45 622.761 576.45C620.213 576.45 618.165 575.179 616.656 573.65C615.158 572.133 613.985 570.167 613.081 568.206C612.199 566.294 611.497 564.221 610.984 562.252C606.561 566.039 600.769 570.635 594.659 574.678C590.556 577.393 586.252 579.897 582.079 581.739C577.946 583.563 573.73 584.833 569.863 584.865C565.437 584.902 562.086 584.094 559.698 582.433C557.201 580.697 556.144 578.305 555.81 576.078C555.749 575.677 555.712 575.279 555.693 574.889C553.455 576.854 550.891 579.316 548.827 581.38C546.462 583.745 542.447 586.999 538.161 588.662C536.005 589.498 533.539 590.027 531.077 589.611C528.697 589.209 526.567 587.963 524.923 585.796C520.796 590.65 514.211 596.001 505.524 597.207C497.71 598.292 491.65 596.25 488.306 591.602C486.266 588.767 485.499 585.314 485.753 581.741C477.925 585.244 471.308 587.344 465.784 588.113C460.622 588.832 456.176 588.415 452.597 586.683C446.72 598.141 440.363 605.673 433.956 610.403C426.957 615.569 420.029 617.291 413.93 617.236C407.455 617.179 402.256 614.255 399.328 608.674C398.115 606.361 397.33 603.666 396.962 600.638C388.854 611.674 376.212 619.282 359.983 626.206C348.716 631.013 332.683 632.716 316.673 631.268C300.649 629.817 284.174 625.167 272.097 616.817C270.734 615.875 270.393 614.007 271.335 612.644C272.277 611.281 274.146 610.94 275.509 611.882C286.459 619.452 301.824 623.899 317.214 625.292C332.619 626.686 347.573 624.978 357.628 620.688C378.758 611.672 391.978 602.152 397.785 586.578C398.329 585.12 399.897 584.32 401.397 584.735C402.896 585.151 403.83 586.644 403.546 588.174C402.024 596.368 402.718 602.219 404.642 605.887C406.447 609.33 409.509 611.197 413.983 611.237C418.834 611.28 424.481 609.939 430.393 605.575C436.344 601.183 442.69 593.63 448.689 581.052C449.091 580.208 449.863 579.6 450.778 579.407C451.692 579.215 452.644 579.459 453.353 580.068C455.525 581.936 459.081 582.989 464.957 582.171C470.841 581.351 478.636 578.699 488.717 573.708C489.827 573.158 491.162 573.348 492.076 574.186C492.989 575.024 493.293 576.338 492.841 577.492C491.094 581.945 491.483 585.744 493.177 588.098C494.788 590.338 498.242 592.161 504.699 591.264C513.163 590.088 519.463 583.653 522.561 578.991C522.612 575.194 524.82 572.056 527.302 570.023C529.977 567.834 533.68 566.333 536.989 566.791C538.63 567.018 539.777 568.532 539.55 570.174C539.323 571.815 537.809 572.961 536.167 572.734C535.03 572.577 532.953 573.151 531.103 574.666C529.3 576.142 528.423 577.917 528.58 579.525C528.645 580.197 528.895 580.985 529.496 581.879C530.31 583.091 531.186 583.545 532.076 583.695C533.086 583.866 534.402 583.684 535.991 583.068C539.195 581.825 542.523 579.199 544.584 577.137C546.823 574.898 549.687 572.151 552.167 570.004C553.396 568.939 554.597 567.964 555.612 567.269C556.109 566.929 556.661 566.586 557.21 566.341C557.484 566.218 557.853 566.076 558.279 565.995C558.67 565.921 559.403 565.839 560.215 566.155C561.81 566.775 562.153 568.246 562.225 568.698C562.311 569.229 562.266 569.718 562.238 569.97C562.194 570.38 562.095 570.914 562.012 571.363L562.012 571.364C561.989 571.487 561.968 571.604 561.949 571.71C561.733 572.922 561.582 574.116 561.743 575.188C561.887 576.149 562.259 576.907 563.123 577.507C564.095 578.182 566.036 578.897 569.813 578.865C572.508 578.843 575.857 577.927 579.657 576.25C583.418 574.59 587.415 572.277 591.348 569.674C599.216 564.469 606.596 558.257 610.961 554.267C611.807 553.493 613.021 553.269 614.087 553.69C615.154 554.112 615.887 555.105 615.976 556.248C616.155 558.553 617.032 562.447 618.529 565.693C619.276 567.313 620.1 568.598 620.926 569.435C621.584 570.102 622.104 570.353 622.499 570.425C622.715 570.233 623.036 569.866 623.469 569.227C624.153 568.221 624.837 566.977 625.663 565.474C625.994 564.873 626.348 564.229 626.734 563.543C629.223 559.114 632.867 553.196 638.947 550.636C641.69 549.481 643.985 548.993 646.084 549.301C648.236 549.616 649.712 550.711 650.776 551.544L650.894 551.637L650.959 551.688L651.194 551.874C652.095 552.586 652.799 553.143 653.819 553.616C654.93 554.131 656.543 554.586 659.153 554.586C663.454 554.586 666.822 552.634 670.42 549.828C671.297 549.145 672.162 548.432 673.062 547.69L673.068 547.685L673.131 547.633C674.044 546.88 674.994 546.098 675.965 545.347C677.902 543.847 680.041 542.375 682.464 541.321C685.335 540.071 687.851 540.177 690.122 541.355C691.724 542.185 693.157 543.574 694.303 544.684C694.503 544.878 694.694 545.063 694.876 545.235C696.258 546.545 697.635 547.712 699.452 548.53C701.235 549.331 703.625 549.875 707.08 549.598C710.962 549.288 715.71 546.895 720.086 543.705C723.974 540.871 727.119 537.74 728.659 535.715C728.709 534.583 728.843 533.144 729.112 531.673C729.452 529.812 730.078 527.49 731.318 525.734C732.496 524.065 734.482 521.724 736.809 520.089C738.984 518.56 742.619 516.902 746.082 519.182C748.689 520.899 748.464 523.943 748.112 525.597C747.705 527.507 746.757 529.565 745.749 531.363C744.719 533.2 743.51 534.97 742.417 536.341C741.873 537.023 741.323 537.651 740.808 538.153C740.551 538.403 740.266 538.658 739.966 538.882C739.711 539.071 739.241 539.395 738.63 539.578C737.704 539.856 736.556 539.933 735.551 539.94C735.754 540.322 735.998 540.706 736.29 541.077C737.491 542.598 739.758 544.214 744.359 544.102C754.621 543.852 766.334 539.933 776.856 532.494C784.458 527.119 790.559 522.135 793.44 519.661C793.437 518.778 793.436 517.891 793.436 517.002C793.436 502.724 794.142 482.845 796.697 462.952C799.242 443.128 803.657 422.99 811.225 408.378C811.987 406.906 813.797 406.331 815.269 407.093ZM734.831 533.934C735.347 533.946 735.823 533.942 736.222 533.916C736.364 533.907 736.487 533.896 736.592 533.883L736.62 533.857C736.897 533.586 737.276 533.164 737.725 532.601C738.618 531.481 739.646 529.98 740.516 528.429C741.407 526.839 742.02 525.393 742.244 524.346L742.255 524.29L742.266 524.237L742.274 524.195L742.281 524.156L742.288 524.119L742.294 524.079C741.908 524.092 741.274 524.284 740.259 524.998C738.699 526.094 737.175 527.841 736.22 529.194C735.754 529.854 735.313 531.116 735.014 532.753C734.941 533.152 734.881 533.549 734.831 533.934ZM742.324 523.576C742.325 523.575 742.327 523.578 742.329 523.588C742.331 523.6 742.334 523.621 742.334 523.652C742.322 523.607 742.321 523.579 742.324 523.576ZM809.527 606.311C809.528 606.312 809.52 606.31 809.504 606.303C809.518 606.306 809.526 606.31 809.527 606.311ZM247.948 409.788C249.542 410.24 250.468 411.899 250.015 413.493C245.428 429.662 242.536 456.721 241.332 487.323C240.131 517.85 240.619 551.641 242.696 581.14C242.887 583.857 243.115 586.642 243.375 589.48C286.898 559.211 329.414 516.699 352.42 467.055C353.117 465.551 354.9 464.897 356.404 465.594C357.907 466.291 358.561 468.074 357.864 469.577C333.782 521.544 289.07 565.542 244.052 596.301C246.98 623.842 252.585 655.215 257.975 679.954C260.728 692.591 263.415 703.452 265.647 711.158C266.463 713.974 267.207 716.333 267.863 718.187C268.214 718.042 268.599 717.963 269.002 717.963C270.659 717.963 272.002 719.306 272.002 720.963C272.002 722.01 271.879 723.227 271.58 724.267C271.439 724.759 271.195 725.444 270.742 726.06C270.296 726.666 269.189 727.761 267.444 727.543C266.283 727.398 265.542 726.697 265.244 726.386C264.875 726.001 264.582 725.564 264.354 725.182C263.89 724.404 263.433 723.396 262.983 722.266C262.071 719.978 261.022 716.757 259.884 712.827C257.6 704.945 254.881 693.941 252.112 681.231C246.895 657.281 241.466 627.11 238.429 600.074C209.012 619.451 179.657 633.192 155.937 639.728C143.544 643.143 132.497 644.645 123.704 643.833C114.952 643.024 107.787 639.831 104.353 633.194C101.286 627.268 101.9 620.392 104.653 613.664C107.41 606.927 112.44 599.975 118.872 593.451C131.738 580.403 150.731 568.546 170.311 563.193C171.909 562.756 173.559 563.698 173.996 565.296C174.433 566.894 173.492 568.544 171.893 568.981C153.406 574.035 135.322 585.313 123.145 597.664C117.056 603.839 112.573 610.152 110.206 615.936C107.835 621.731 107.714 626.635 109.681 630.437C111.759 634.452 116.435 637.136 124.256 637.858C132.037 638.577 142.296 637.263 154.344 633.944C178.003 627.424 207.82 613.377 237.716 593.344C237.318 589.317 236.979 585.378 236.711 581.561C234.618 551.836 234.127 517.825 235.337 487.088C236.543 456.426 239.448 428.757 244.243 411.855C244.695 410.261 246.354 409.336 247.948 409.788ZM894.882 446.405C896.452 446.73 897.489 448.233 897.236 449.816C896.931 451.724 896.637 453.432 896.335 454.97C896.133 457.012 896.129 459.025 896.436 460.63C896.765 462.355 897.321 462.977 897.657 463.169C899.018 463.946 901.721 464.345 905.118 464.3C908.344 464.257 911.593 463.832 913.558 463.459C915.183 463.15 916.751 464.215 917.064 465.839C917.377 467.463 916.316 469.034 914.692 469.35C911.33 470.006 903.635 472.101 899.086 475.103C897.598 476.085 895.998 477.971 894.441 480.43C892.945 482.792 891.647 485.426 890.644 487.686C890.221 488.886 889.742 490.023 889.242 491.014C888.519 492.447 886.797 493.057 885.334 492.4C883.871 491.742 883.183 490.05 883.774 488.558C884.111 487.708 884.543 486.654 885.059 485.482C885.801 483.327 886.308 480.989 886.338 479.138C886.366 477.437 886.011 476.984 885.961 476.92L885.958 476.915C883.28 475.641 879.813 476.2 878.049 476.984C876.563 477.645 874.82 477 874.122 475.531C873.423 474.062 874.022 472.304 875.473 471.568C876.761 470.913 878.89 469.738 880.999 468.38C883.169 466.984 885.07 465.552 886.099 464.403C888.176 462.087 889.284 459.645 890.395 454.078C890.617 452.007 890.992 450.072 891.367 448.601C891.763 447.047 893.311 446.079 894.882 446.405ZM892.303 466.194C891.789 466.954 891.215 467.685 890.567 468.409C889.752 469.317 888.71 470.227 887.587 471.091C887.938 471.226 888.288 471.376 888.634 471.545C889.969 472.194 890.839 473.199 891.398 474.325C892.686 472.679 894.151 471.172 895.781 470.096C896.165 469.842 896.563 469.596 896.974 469.356C896.154 469.099 895.381 468.778 894.682 468.379C893.68 467.807 892.905 467.047 892.303 466.194ZM968.135 494.426C969.634 495.132 970.277 496.919 969.572 498.418C968.496 500.703 966.264 503.171 963.56 505.521C960.782 507.936 957.239 510.454 953.221 512.794C945.215 517.458 935.061 521.568 924.973 522.63C908.011 524.415 895.662 519.543 889.616 512.532C885.065 517.526 877.711 522.815 860.634 530.321C835.471 541.381 814.686 536.51 803.736 525.731C802.924 524.932 802.635 523.743 802.989 522.661C803.342 521.579 804.277 520.79 805.404 520.625C807.645 520.295 810.941 519.233 814.013 517.74C817.205 516.19 819.492 514.492 820.329 513.212C821.235 511.825 823.094 511.436 824.481 512.343C825.868 513.25 826.257 515.109 825.35 516.496C823.563 519.229 819.975 521.514 816.635 523.137C815.242 523.814 813.778 524.429 812.331 524.951C822.071 531.254 838.146 533.651 858.22 524.828C878.509 515.911 883.834 510.596 887.408 505.764C888.024 504.931 889.026 504.475 890.058 504.557C891.091 504.639 892.008 505.248 892.484 506.168C895.474 511.943 905.91 518.603 924.345 516.663C933.347 515.715 942.684 511.989 950.201 507.61C953.945 505.429 957.172 503.124 959.624 500.992C962.151 498.796 963.611 496.994 964.143 495.863C964.848 494.364 966.636 493.721 968.135 494.426ZM417.706 519.558C419.165 520.121 419.947 521.712 419.501 523.211C419.051 524.725 418.334 526.836 417.413 529.124C417.367 529.342 417.326 529.559 417.289 529.774C416.941 531.816 417.066 533.449 417.567 534.601C418.006 535.609 418.843 536.526 420.689 537.06C422.671 537.633 425.82 537.749 430.626 536.766C432.166 536.451 433.689 537.38 434.114 538.894C434.54 540.408 433.724 541.994 432.244 542.527C428.206 543.985 421.568 546.6 416.428 550.325C412.678 553.044 409.725 556.274 407.899 559.788C407.242 562.152 406.49 564.367 405.86 566.023C405.314 567.457 403.774 568.248 402.29 567.856C400.806 567.465 399.857 566.016 400.091 564.499C400.463 562.083 401.216 559.783 402.273 557.618C402.598 556.403 402.888 555.168 403.108 553.983C403.432 552.233 403.57 550.752 403.503 549.676C403.469 549.131 403.394 548.845 403.352 548.719C403.016 548.523 402.459 548.296 401.625 548.099C400.662 547.871 399.516 547.726 398.284 547.651C396.793 547.561 395.276 547.581 393.967 547.651C393.04 547.758 392.207 547.823 391.514 547.855C389.901 547.93 388.518 546.714 388.385 545.105C388.253 543.495 389.418 542.07 391.022 541.88C391.702 541.799 392.531 541.724 393.452 541.671C394.966 541.49 396.792 541.182 398.632 540.705C401.588 539.939 404.169 538.842 405.687 537.476C407.269 536.051 408.979 533.252 410.515 529.96C410.926 529.079 411.311 528.192 411.666 527.327C412.184 525.125 413.003 522.971 413.921 521.058C414.598 519.648 416.246 518.994 417.706 519.558ZM412.749 538.3C411.817 539.687 410.797 540.948 409.701 541.935C408.874 542.68 407.934 543.328 406.934 543.893C406.974 543.921 407.014 543.95 407.053 543.978C408.603 545.105 409.177 546.854 409.392 548.327C410.503 547.311 411.68 546.356 412.907 545.467C414.455 544.345 416.104 543.321 417.768 542.394C415.538 541.502 413.863 540.093 412.749 538.3ZM190.005 536.528C191.63 536.346 193.102 537.499 193.314 539.121C193.413 539.885 193.506 540.623 193.588 541.337C193.845 543.037 194.251 545.029 194.819 546.851C195.234 548.183 195.702 549.311 196.195 550.14C196.72 551.021 197.084 551.242 197.136 551.265C199.894 552.483 203.371 552.278 204.665 552.014C206.169 551.708 207.661 552.586 208.124 554.048C208.587 555.511 207.873 557.087 206.467 557.702C205.815 557.988 204.611 558.621 203.359 559.512C202.088 560.415 200.952 561.454 200.248 562.501C200.146 562.654 199.95 563.104 199.853 564.032C199.761 564.914 199.781 565.991 199.897 567.175C200.128 569.546 200.706 572.003 201.162 573.505C201.633 575.058 200.783 576.704 199.243 577.22C197.704 577.735 196.034 576.933 195.474 575.409C194.771 573.492 193.546 570.581 192.189 568.121C191.506 566.883 190.843 565.857 190.252 565.144C189.848 564.657 189.61 564.479 189.548 564.43C188.656 564.264 187.575 564.294 186.48 564.458C185.336 564.63 184.378 564.919 183.923 565.094C182.5 565.642 180.893 565.035 180.187 563.684C179.481 562.333 179.9 560.668 181.161 559.812C182.339 559.012 185.165 556.553 186.567 553.65C188.099 550.476 188.26 547.611 187.632 542.078C187.507 541.234 187.414 540.457 187.352 539.788C187.199 538.16 188.38 536.71 190.005 536.528ZM192.473 555.136C192.319 555.508 192.152 555.882 191.97 556.258C191.585 557.055 191.138 557.816 190.656 558.534C190.763 558.554 190.869 558.575 190.976 558.598C192.457 558.92 193.621 559.922 194.442 560.822C194.647 560.245 194.915 559.68 195.268 559.155C195.675 558.549 196.135 557.98 196.623 557.449C195.982 557.261 195.341 557.032 194.713 556.754C193.829 556.364 193.09 555.786 192.473 555.136ZM129.658 720.635C129.658 723.823 127.074 726.407 123.887 726.407C120.699 726.407 118.115 723.823 118.115 720.635C118.115 717.448 120.699 714.864 123.887 714.864C127.074 714.864 129.658 717.448 129.658 720.635ZM139.989 683.131C141.507 683.131 142.739 681.9 142.739 680.381C142.739 678.862 141.507 677.631 139.989 677.631C138.47 677.631 137.239 678.862 137.239 680.381C137.239 681.9 138.47 683.131 139.989 683.131ZM200.542 735.718C200.542 737.785 198.866 739.461 196.798 739.461C194.731 739.461 193.055 737.785 193.055 735.718C193.055 733.65 194.731 731.974 196.798 731.974C198.866 731.974 200.542 733.65 200.542 735.718ZM962.679 370.684C964.27 370.684 965.561 369.394 965.561 367.802C965.561 366.21 964.27 364.92 962.679 364.92C961.087 364.92 959.796 366.21 959.796 367.802C959.796 369.394 961.087 370.684 962.679 370.684ZM887.156 362.534C887.156 367.234 883.346 371.044 878.646 371.044C873.946 371.044 870.136 367.234 870.136 362.534C870.136 357.834 873.946 354.024 878.646 354.024C883.346 354.024 887.156 357.834 887.156 362.534ZM511.933 715.569L525.366 677.483H531.697L545.181 715.569H539.829L536.638 706.46H520.476L517.285 715.569H511.933ZM535.093 701.93L528.557 683.247L522.02 701.93H535.093ZM584.374 715.569V681.909H572.484V677.483H601.307V681.909H589.418V715.569H584.374ZM635.039 677.483V715.569H659.486V711.143H640.083V698.379H656.862V693.953H640.083V681.909H659.229V677.483H635.039ZM694.234 715.569V677.483H699.278V711.143H718.887V715.569H694.234ZM753.63 677.483V715.569H758.673V677.483H753.63ZM794.177 715.569V677.483H818.367V681.909H799.221V693.953H816V698.379H799.221V711.143H818.625V715.569H794.177ZM853.372 677.483V715.569H858.416V699.563H865.364L874.577 715.569H880.29L870.665 699.099C872.518 698.619 874.045 697.847 875.246 696.783C876.481 695.685 877.408 694.416 878.025 692.975C878.643 691.534 878.952 690.041 878.952 688.497C878.952 686.644 878.506 684.877 877.614 683.196C876.721 681.514 875.383 680.142 873.599 679.078C871.815 678.015 869.567 677.483 866.857 677.483H853.372ZM858.416 681.909H866.805C868.384 681.909 869.687 682.235 870.717 682.887C871.746 683.539 872.518 684.38 873.033 685.409C873.548 686.404 873.805 687.468 873.805 688.6C873.805 689.698 873.548 690.762 873.033 691.791C872.518 692.786 871.746 693.61 870.717 694.261C869.687 694.913 868.384 695.239 866.805 695.239H858.416V681.909Z" fill="url(#paint0_linear_3_150)"/>
<defs>
<linearGradient id="paint0_linear_3_150" x1="102.307" y1="336.458" x2="980.683" y2="361.623" gradientUnits="userSpaceOnUse">
<stop stop-color="#0F7AF8"/>
<stop offset="0.324212" stop-color="#4111F8"/>
<stop offset="0.631516" stop-color="#C32EF8"/>
<stop offset="1" stop-color="#FF5995"/>
</linearGradient>
</defs>
</svg>