<svg xmlns="http://www.w3.org/2000/svg" width="868" height="404" fill="none" viewBox="0 0 868 404">
  <path fill="#0F7AF8" fill-rule="evenodd" d="M717.048 3.604a3.146 3.146 0 1 1-6.291 0 3.146 3.146 0 0 1 6.291 0Zm-113.767 52.55a5.771 5.771 0 1 0 0-11.542 5.771 5.771 0 0 0 0 11.542Zm109.987 14.94a3 3 0 0 1 1.285 4.043c-7.073 13.656-11.384 32.945-13.905 52.579-2.513 19.565-3.212 39.174-3.212 53.286 0 1.316.003 2.625.009 3.928l.001.066v.062l-.001.021c.119 24.322 1.298 46.216 3.451 61.981 1.081 7.917 2.387 14.133 3.865 18.302.744 2.102 1.466 3.491 2.093 4.3.294.379.493.543.595.609.089-.028.262-.096.527-.259.445-.277.967-.714 1.523-1.289 1.121-1.159 2.078-2.56 2.524-3.365a3 3 0 0 1 5.245 2.914c-.672 1.211-1.932 3.047-3.455 4.622-.765.791-1.672 1.595-2.677 2.218-.981.608-2.273 1.178-3.748 1.178-2.354 0-4.099-1.433-5.277-2.953-1.192-1.538-2.17-3.612-3.006-5.971-1.683-4.751-3.055-11.447-4.154-19.494-2.011-14.732-3.174-34.514-3.451-56.458a255.548 255.548 0 0 1-13.18 9.979c-11.369 8.038-24.218 12.425-35.815 12.707-6.329.155-10.459-2.183-12.924-5.305-.5-.633-.921-1.285-1.274-1.936a57.869 57.869 0 0 1-6.687 5.695c-4.644 3.385-10.499 6.58-16.062 7.025-4.361.349-7.775-.322-10.567-1.577-2.758-1.241-4.726-2.974-6.243-4.412a164.63 164.63 0 0 1-.758-.724l-.012-.011c-1.176-1.126-1.861-1.781-2.617-2.173-.517-.268-1.128-.459-2.503.14-1.759.766-3.444 1.894-5.221 3.27-.887.686-1.768 1.411-2.689 2.17l-.086.071-.002.002c-.884.728-1.806 1.489-2.751 2.225-3.9 3.042-8.604 6.026-14.956 6.026-3.358 0-5.852-.596-7.859-1.527-1.709-.793-2.978-1.804-3.868-2.514l-.349-.277c-.948-.742-1.367-.958-1.863-1.031-.548-.08-1.655-.033-3.939.929-3.974 1.673-6.761 5.779-9.311 10.317-.299.532-.601 1.08-.904 1.631v.002l-.001.001c-.882 1.605-1.773 3.224-2.626 4.481-.588.866-1.287 1.763-2.124 2.463-.853.715-2.047 1.389-3.548 1.389-2.548 0-4.596-1.271-6.105-2.8-1.498-1.517-2.671-3.483-3.576-5.444-.882-1.912-1.583-3.985-2.097-5.954-4.423 3.787-10.214 8.383-16.324 12.426-4.103 2.715-8.407 5.219-12.58 7.061-4.134 1.824-8.349 3.094-12.216 3.126-4.426.037-7.777-.771-10.165-2.432-2.498-1.736-3.555-4.128-3.889-6.355-.06-.401-.097-.799-.116-1.189-2.238 1.965-4.803 4.427-6.866 6.491-2.366 2.365-6.38 5.619-10.666 7.282-2.156.836-4.622 1.365-7.084.949-2.381-.402-4.51-1.648-6.155-3.815-4.126 4.854-10.711 10.205-19.398 11.411-7.814 1.085-13.874-.957-17.218-5.605-2.04-2.835-2.807-6.288-2.553-9.861-7.828 3.503-14.445 5.603-19.969 6.372-5.163.719-9.608.302-13.187-1.43-5.877 11.458-12.234 18.99-18.641 23.72-6.999 5.166-13.927 6.888-20.026 6.833-6.475-.057-11.675-2.981-14.602-8.562-1.213-2.313-1.998-5.008-2.366-8.036-8.108 11.036-20.75 18.644-36.98 25.568-11.266 4.807-27.3 6.51-43.309 5.062-16.024-1.451-32.499-6.101-44.576-14.451a3 3 0 1 1 3.412-4.935c10.95 7.57 26.315 12.017 41.705 13.41 15.405 1.394 30.358-.314 40.414-4.604 21.129-9.016 34.35-18.536 40.157-34.11a3 3 0 0 1 5.76 1.596c-1.521 8.194-.828 14.045 1.096 17.713 1.806 3.443 4.868 5.31 9.342 5.35 4.85.043 10.498-1.298 16.409-5.662 5.952-4.392 12.298-11.945 18.297-24.523a3 3 0 0 1 4.663-.984c2.173 1.868 5.729 2.921 11.604 2.103 5.885-.82 13.68-3.472 23.76-8.463a3.002 3.002 0 0 1 4.124 3.784c-1.746 4.453-1.357 8.252.336 10.606 1.612 2.24 5.066 4.063 11.523 3.166 8.464-1.176 14.764-7.611 17.862-12.273.051-3.797 2.258-6.935 4.741-8.968 2.674-2.189 6.378-3.69 9.687-3.232a3 3 0 1 1-.822 5.943c-1.137-.157-3.214.417-5.064 1.932-1.803 1.476-2.681 3.251-2.523 4.859.065.672.315 1.46.915 2.354.814 1.212 1.69 1.666 2.581 1.816 1.01.171 2.326-.011 3.914-.627 3.204-1.243 6.532-3.869 8.594-5.931 2.239-2.239 5.103-4.986 7.582-7.133 1.23-1.065 2.431-2.04 3.446-2.735.497-.34 1.049-.683 1.598-.928a4.83 4.83 0 0 1 1.069-.346 3.512 3.512 0 0 1 1.935.16c1.595.62 1.938 2.091 2.011 2.543.086.531.041 1.02.013 1.272-.045.41-.143.944-.226 1.393v.001c-.023.123-.045.24-.063.346-.217 1.212-.367 2.406-.206 3.478.144.961.516 1.719 1.379 2.319.972.675 2.913 1.39 6.691 1.358 2.694-.022 6.044-.938 9.843-2.615 3.761-1.66 7.759-3.973 11.692-6.576 7.867-5.205 15.248-11.417 19.613-15.407a3 3 0 0 1 5.015 1.981c.179 2.305 1.055 6.199 2.553 9.445.747 1.62 1.57 2.905 2.397 3.742.658.667 1.178.918 1.572.99.217-.192.538-.559.971-1.198.683-1.006 1.367-2.25 2.194-3.753.331-.601.685-1.245 1.07-1.931 2.49-4.429 6.133-10.347 12.214-12.907 2.743-1.155 5.037-1.643 7.137-1.335 2.152.315 3.628 1.41 4.692 2.243l.117.093.066.051.235.186c.901.712 1.605 1.269 2.624 1.742 1.111.515 2.725.97 5.335.97 4.301 0 7.669-1.952 11.267-4.758.877-.683 1.742-1.396 2.641-2.138l.007-.005.063-.052c.913-.753 1.862-1.535 2.833-2.286 1.938-1.5 4.077-2.972 6.499-4.026 2.871-1.25 5.387-1.144 7.659.034 1.602.83 3.035 2.219 4.181 3.329.2.194.391.379.573.551 1.382 1.31 2.759 2.477 4.576 3.295 1.783.801 4.173 1.345 7.628 1.068 3.881-.31 8.63-2.703 13.006-5.893 3.888-2.834 7.033-5.965 8.573-7.99.05-1.132.184-2.571.453-4.042.34-1.861.966-4.183 2.206-5.939 1.178-1.669 3.164-4.01 5.491-5.645 2.174-1.529 5.81-3.187 9.273-.907 2.607 1.717 2.382 4.761 2.03 6.415-.408 1.91-1.355 3.968-2.363 5.766a38.476 38.476 0 0 1-3.332 4.978 19.832 19.832 0 0 1-1.61 1.812c-.256.25-.541.505-.842.729a4.368 4.368 0 0 1-1.336.696c-.925.278-2.073.355-3.078.362.202.382.446.766.739 1.137 1.2 1.521 3.468 3.137 8.069 3.025 10.262-.25 21.975-4.169 32.497-11.608 7.602-5.375 13.703-10.359 16.584-12.833-.003-.883-.004-1.77-.004-2.659 0-14.278.706-34.157 3.261-54.05 2.545-19.824 6.96-39.962 14.528-54.574a3 3 0 0 1 4.043-1.285Zm-80.437 126.84c.516.012.992.008 1.391-.018.142-.009.265-.02.37-.033l.028-.026c.277-.271.656-.693 1.105-1.256a32.418 32.418 0 0 0 2.791-4.172c.891-1.59 1.504-3.036 1.727-4.083l.012-.056.011-.053.008-.042.007-.039.006-.037.007-.04c-.386.013-1.021.205-2.035.919-1.56 1.096-3.084 2.843-4.039 4.196-.467.66-.907 1.922-1.206 3.559a22.07 22.07 0 0 0-.183 1.181Zm7.493-10.358c.001-.001.003.002.005.012a.528.528 0 0 1 .005.064c-.012-.045-.013-.073-.01-.076Zm67.202 82.735c.001.001-.006-.001-.022-.008.014.003.022.007.022.008ZM145.948 73.788a3 3 0 0 1 2.067 3.705c-4.587 16.17-7.479 43.228-8.683 73.83-1.201 30.527-.713 64.318 1.364 93.817.191 2.717.418 5.502.679 8.34 43.522-30.269 86.039-72.781 109.045-122.425a3 3 0 1 1 5.444 2.522c-24.082 51.967-68.794 95.965-113.813 126.724 2.929 27.541 8.534 58.914 13.924 83.653 2.753 12.637 5.439 23.498 7.672 31.204.815 2.816 1.56 5.175 2.215 7.029a3 3 0 0 1 4.14 2.776c0 1.047-.124 2.264-.422 3.304-.141.492-.385 1.177-.838 1.793-.446.606-1.553 1.701-3.298 1.483-1.161-.145-1.902-.846-2.201-1.157a6.696 6.696 0 0 1-.889-1.204c-.464-.778-.922-1.786-1.372-2.916-.911-2.288-1.96-5.509-3.099-9.439-2.283-7.882-5.002-18.886-7.771-31.596-5.217-23.95-10.646-54.121-13.684-81.157-29.416 19.377-58.772 33.118-82.49 39.654-12.394 3.415-23.441 4.917-32.234 4.105-8.752-.809-15.918-4.002-19.352-10.639-3.067-5.926-2.452-12.802.3-19.53 2.758-6.737 7.787-13.689 14.22-20.213 12.865-13.048 31.859-24.905 51.439-30.258a3 3 0 0 1 1.582 5.788c-18.487 5.054-36.57 16.332-48.748 28.683-6.09 6.175-10.572 12.488-12.94 18.272-2.37 5.795-2.491 10.699-.524 14.501 2.078 4.015 6.753 6.699 14.575 7.421 7.78.719 18.04-.595 30.087-3.914 23.66-6.52 53.477-20.567 83.373-40.6a421.171 421.171 0 0 1-1.006-11.783c-2.093-29.725-2.583-63.736-1.374-94.473 1.207-30.662 4.112-58.33 8.907-75.233a3 3 0 0 1 3.705-2.067Zm646.934 36.617a3 3 0 0 1 2.354 3.411 152.25 152.25 0 0 1-.901 5.154c-.203 2.042-.206 4.055.1 5.66.33 1.725.886 2.347 1.222 2.539 1.361.777 4.064 1.176 7.461 1.131a52.371 52.371 0 0 0 8.44-.841 3 3 0 0 1 1.134 5.891c-3.362.656-11.058 2.751-15.606 5.753-1.488.982-3.088 2.868-4.645 5.327-1.496 2.362-2.794 4.996-3.797 7.256a28.403 28.403 0 0 1-1.403 3.328 3 3 0 0 1-5.467-2.456c.337-.85.769-1.904 1.284-3.076.742-2.155 1.249-4.493 1.28-6.344.028-1.701-.327-2.154-.377-2.218l-.004-.005c-2.677-1.274-6.144-.715-7.908.069a3 3 0 0 1-2.577-5.416 67.252 67.252 0 0 0 5.527-3.188c2.17-1.396 4.07-2.828 5.1-3.977 2.076-2.316 3.185-4.758 4.296-10.325.222-2.071.596-4.006.971-5.477a3 3 0 0 1 3.516-2.196Zm-2.579 19.789a20.582 20.582 0 0 1-1.737 2.215c-.814.908-1.856 1.818-2.979 2.682.351.135.701.285 1.047.454 1.335.649 2.205 1.654 2.764 2.78 1.288-1.646 2.752-3.153 4.383-4.229.384-.254.782-.5 1.193-.74a11.625 11.625 0 0 1-2.292-.977 7.358 7.358 0 0 1-2.379-2.185Zm75.832 28.232a3 3 0 0 1 1.437 3.992c-1.076 2.285-3.309 4.753-6.012 7.103-2.779 2.415-6.322 4.933-10.339 7.273-8.006 4.664-18.161 8.774-28.248 9.836-16.962 1.785-29.312-3.087-35.358-10.098-4.55 4.994-11.904 10.283-28.981 17.789-25.164 11.06-45.949 6.189-56.899-4.59a3 3 0 0 1 1.669-5.106c2.241-.33 5.537-1.392 8.609-2.885 3.191-1.55 5.479-3.248 6.315-4.528a3 3 0 1 1 5.022 3.284c-1.787 2.733-5.376 5.018-8.716 6.641a44.406 44.406 0 0 1-4.303 1.814c9.74 6.303 25.815 8.7 45.889-.123 20.289-8.917 25.614-14.232 29.188-19.064a2.998 2.998 0 0 1 5.076.404c2.99 5.775 13.426 12.435 31.86 10.495 9.003-.948 18.34-4.674 25.857-9.053 3.744-2.181 6.97-4.486 9.423-6.618 2.527-2.196 3.987-3.998 4.519-5.129a3 3 0 0 1 3.992-1.437Zm-550.43 25.132a3 3 0 0 1 1.796 3.653 69.918 69.918 0 0 1-2.088 5.913c-.046.218-.088.435-.124.65-.348 2.042-.223 3.675.278 4.827.438 1.008 1.276 1.925 3.122 2.459 1.981.573 5.13.689 9.936-.294a3 3 0 0 1 1.619 5.761c-4.039 1.458-10.676 4.073-15.816 7.798-3.75 2.719-6.703 5.949-8.529 9.463a73.735 73.735 0 0 1-2.039 6.235 3 3 0 0 1-5.769-1.524c.372-2.416 1.124-4.716 2.181-6.881.326-1.215.616-2.45.835-3.635.324-1.75.463-3.231.396-4.307-.034-.545-.109-.831-.152-.957-.335-.196-.892-.423-1.727-.62-.962-.228-2.108-.373-3.34-.448a38.817 38.817 0 0 0-4.317 0c-.927.107-1.76.172-2.454.204a3 3 0 0 1-.491-5.975c.68-.081 1.509-.156 2.429-.209a39.926 39.926 0 0 0 5.18-.966c2.957-.766 5.537-1.863 7.055-3.229 1.583-1.425 3.292-4.224 4.828-7.516.412-.881.797-1.768 1.152-2.633.518-2.202 1.337-4.356 2.255-6.269a3 3 0 0 1 3.784-1.5Zm-4.956 18.742c-.933 1.387-1.952 2.648-3.049 3.635-.827.745-1.766 1.393-2.766 1.958l.119.085c1.549 1.127 2.124 2.876 2.338 4.349a39.907 39.907 0 0 1 3.516-2.86 48.648 48.648 0 0 1 4.861-3.073c-2.23-.892-3.905-2.301-5.019-4.094Zm-222.744-1.772a3 3 0 0 1 3.308 2.593c.1.764.192 1.502.275 2.216.257 1.7.663 3.692 1.23 5.514.416 1.332.884 2.46 1.377 3.289.525.881.888 1.102.941 1.125 2.758 1.218 6.234 1.013 7.529.749a3.001 3.001 0 0 1 1.802 5.688c-.652.286-1.856.919-3.109 1.81-1.27.903-2.406 1.942-3.11 2.989-.102.153-.298.603-.395 1.531-.093.882-.072 1.959.043 3.143.232 2.371.81 4.828 1.265 6.33a3 3 0 0 1-5.687 1.904c-.704-1.917-1.928-4.828-3.286-7.288-.682-1.238-1.345-2.264-1.937-2.977-.404-.487-.641-.665-.704-.714-.891-.166-1.973-.136-3.067.028-1.144.172-2.102.461-2.558.636a2.999 2.999 0 0 1-2.761-5.282c1.178-.8 4.004-3.259 5.405-6.162 1.532-3.174 1.693-6.039 1.066-11.572a43.36 43.36 0 0 1-.28-2.29 3 3 0 0 1 2.653-3.26Zm2.468 18.608a18.537 18.537 0 0 1-1.817 3.398c.106.02.213.041.32.064 1.48.322 2.645 1.324 3.466 2.224a7.429 7.429 0 0 1 .826-1.667c.407-.606.867-1.175 1.355-1.706a15.486 15.486 0 0 1-1.91-.695c-.884-.39-1.623-.968-2.24-1.618ZM27.658 384.635a5.772 5.772 0 1 1-11.543 0 5.772 5.772 0 0 1 11.543 0Zm10.33-37.504a2.75 2.75 0 1 0 0-5.5 2.75 2.75 0 0 0 0 5.5Zm60.554 52.587a3.743 3.743 0 1 1-7.487 0 3.743 3.743 0 0 1 7.487 0ZM860.678 34.684a2.882 2.882 0 1 0 0-5.764 2.882 2.882 0 0 0 0 5.764Zm-75.523-8.15a8.51 8.51 0 1 1-17.02 0 8.51 8.51 0 0 1 17.02 0ZM359.051 350.483V382h4.727v-10.367L372.28 382h5.847l-9.87-11.943 9.58-10.036h-5.806l-8.253 8.75v-18.288h-4.727Zm36.092 4.893c.552.581 1.257.871 2.114.871.858 0 1.563-.276 2.115-.829.581-.581.871-1.272.871-2.074 0-.802-.29-1.479-.871-2.032-.552-.58-1.257-.871-2.115-.871-.857 0-1.562.291-2.114.871-.553.553-.83 1.23-.83 2.032 0 .774.277 1.452.83 2.032Zm-.208 4.645V382h4.728v-21.979h-4.728Zm22.825 0V382h4.727v-10.907c0-2.433.498-4.188 1.493-5.266 1.023-1.106 2.502-1.659 4.438-1.659.525 0 .995.028 1.41.083l.622.083v-4.562l-.581-.083a8.967 8.967 0 0 0-1.327-.083c-1.714 0-3.027.346-3.94 1.037-.884.663-1.534 1.424-1.949 2.281h-.166v-2.903h-4.727Zm40.314.249c-.913-.443-2.06-.664-3.442-.664-1.659 0-3.111.332-4.355.995a9.02 9.02 0 0 0-3.069 2.613 11.42 11.42 0 0 0-1.866 3.649 15.026 15.026 0 0 0-.58 4.147c0 1.41.193 2.793.58 4.147a11.924 11.924 0 0 0 1.866 3.691 9.67 9.67 0 0 0 3.069 2.613c1.244.636 2.696.954 4.355.954 1.382 0 2.529-.221 3.442-.664.94-.442 1.686-.954 2.239-1.534.553-.581.954-1.078 1.203-1.493h.248V382h4.728v-21.979h-4.728v3.276h-.248c-.249-.415-.65-.912-1.203-1.493-.553-.58-1.299-1.092-2.239-1.534Zm-5.806 4.396c.912-.747 2.046-1.12 3.4-1.12 1.355 0 2.475.373 3.359 1.12.913.718 1.59 1.645 2.032 2.778a9.22 9.22 0 0 1 .705 3.566 9.222 9.222 0 0 1-.705 3.567 6.74 6.74 0 0 1-2.032 2.82c-.884.719-2.004 1.078-3.359 1.078-1.354 0-2.488-.359-3.4-1.078a7.085 7.085 0 0 1-2.074-2.82 9.732 9.732 0 0 1-.663-3.567 9.73 9.73 0 0 1 .663-3.566c.47-1.133 1.161-2.06 2.074-2.778Zm31.784-4.645V382h4.728v-12.524c0-.912.152-1.811.456-2.695.304-.913.788-1.673 1.451-2.281.691-.609 1.59-.913 2.696-.913 1.354 0 2.377.456 3.068 1.369.692.912 1.037 2.087 1.037 3.525V382h4.728v-12.524c0-.912.152-1.811.456-2.695.304-.913.788-1.673 1.451-2.281.692-.609 1.59-.913 2.696-.913 1.355 0 2.378.456 3.069 1.369.691.912 1.036 2.087 1.036 3.525V382h4.728v-14.183c0-1.548-.276-2.93-.829-4.147-.526-1.244-1.327-2.225-2.406-2.944-1.078-.747-2.391-1.12-3.939-1.12-1.825 0-3.29.429-4.396 1.286-1.106.857-1.949 1.838-2.53 2.944h-.083c-.525-1.272-1.327-2.295-2.405-3.069-1.078-.774-2.433-1.161-4.064-1.161-1.216 0-2.226.208-3.027.622-.802.387-1.452.857-1.949 1.41-.47.553-.83 1.051-1.079 1.493h-.165v-3.11h-4.728Zm54.516 21.44c1.355.636 2.959.954 4.811.954 1.631 0 3.013-.235 4.147-.705 1.133-.498 2.046-1.106 2.737-1.825.691-.719 1.216-1.438 1.576-2.156.387-.719.65-1.314.788-1.784l.207-.746h-4.396l-.248.498c-.139.331-.388.718-.747 1.161-.359.442-.871.843-1.534 1.202-.664.332-1.507.498-2.53.498-1.797 0-3.207-.608-4.23-1.825-1.023-1.216-1.59-2.668-1.7-4.354h15.593v-1.286c0-2.515-.429-4.617-1.286-6.303-.829-1.714-1.991-3-3.484-3.857-1.465-.884-3.165-1.327-5.1-1.327-1.797 0-3.359.332-4.686.995-1.328.636-2.42 1.507-3.277 2.613a11.424 11.424 0 0 0-1.907 3.691 13.944 13.944 0 0 0-.622 4.105c0 1.41.207 2.793.622 4.147a12.108 12.108 0 0 0 1.949 3.691c.885 1.079 1.99 1.949 3.317 2.613Zm9.912-12.4h-10.99c.166-1.741.76-3.11 1.783-4.105 1.023-1.023 2.309-1.535 3.857-1.535 1.383 0 2.585.457 3.608 1.369 1.051.912 1.631 2.336 1.742 4.271Zm22.042-18.578V382h4.727v-10.367L583.751 382h5.847l-9.87-11.943 9.58-10.036h-5.806l-8.253 8.75v-18.288h-4.727Zm36.092 4.893c.553.581 1.258.871 2.115.871.857 0 1.562-.276 2.115-.829.58-.581.87-1.272.87-2.074 0-.802-.29-1.479-.87-2.032-.553-.58-1.258-.871-2.115-.871-.857 0-1.562.291-2.115.871-.553.553-.83 1.23-.83 2.032 0 .774.277 1.452.83 2.032Zm-.208 4.645V382h4.728v-21.979h-4.728Zm31.202 8.087c.553.58 1.258.87 2.115.87.857 0 1.562-.29 2.115-.87.58-.581.871-1.286.871-2.115a2.88 2.88 0 0 0-.871-2.115c-.553-.581-1.258-.871-2.115-.871-.857 0-1.562.29-2.115.871-.553.58-.829 1.285-.829 2.115 0 .801.276 1.506.829 2.115Zm41.157-7.838c-.912-.443-2.059-.664-3.442-.664-1.659 0-3.11.332-4.354.995a9.001 9.001 0 0 0-3.069 2.613 11.42 11.42 0 0 0-1.866 3.649 15.027 15.027 0 0 0-.581 4.147c0 1.41.194 2.793.581 4.147a11.924 11.924 0 0 0 1.866 3.691 9.649 9.649 0 0 0 3.069 2.613c1.244.636 2.695.954 4.354.954 1.383 0 2.53-.221 3.442-.664.94-.442 1.687-.954 2.24-1.534.553-.581.953-1.078 1.202-1.493h.249V382h4.728v-21.979h-4.728v3.276h-.249c-.249-.415-.649-.912-1.202-1.493-.553-.58-1.3-1.092-2.24-1.534Zm-5.806 4.396c.913-.747 2.046-1.12 3.401-1.12s2.474.373 3.359 1.12c.912.718 1.59 1.645 2.032 2.778a9.22 9.22 0 0 1 .705 3.566 9.222 9.222 0 0 1-.705 3.567 6.748 6.748 0 0 1-2.032 2.82c-.885.719-2.004 1.078-3.359 1.078s-2.488-.359-3.401-1.078a7.092 7.092 0 0 1-2.073-2.82 9.732 9.732 0 0 1-.664-3.567c0-1.244.222-2.432.664-3.566.47-1.133 1.161-2.06 2.073-2.778Zm36.529 16.795c1.05.636 2.446.954 4.188.954.913 0 1.7-.056 2.364-.166l1.037-.166v-3.857l-.747.125a9.835 9.835 0 0 1-1.617.124c-2.295 0-3.442-1.037-3.442-3.11v-11.529h5.142v-3.815h-5.142v-5.474h-4.728v5.474h-3.856v3.815h3.856v11.612c0 1.244.222 2.405.664 3.483.47 1.051 1.23 1.894 2.281 2.53Zm29.321 0c1.354.636 2.958.954 4.81.954 1.631 0 3.014-.235 4.147-.705 1.134-.498 2.046-1.106 2.737-1.825.691-.719 1.217-1.438 1.576-2.156.387-.719.65-1.314.788-1.784l.207-.746h-4.396l-.248.498c-.139.331-.387.718-.747 1.161-.359.442-.871.843-1.534 1.202-.664.332-1.507.498-2.53.498-1.797 0-3.207-.608-4.23-1.825-1.023-1.216-1.59-2.668-1.7-4.354h15.593v-1.286c0-2.515-.429-4.617-1.286-6.303-.829-1.714-1.991-3-3.483-3.857-1.466-.884-3.166-1.327-5.101-1.327-1.797 0-3.359.332-4.686.995-1.327.636-2.419 1.507-3.276 2.613a11.446 11.446 0 0 0-1.908 3.691 13.944 13.944 0 0 0-.622 4.105c0 1.41.207 2.793.622 4.147a12.108 12.108 0 0 0 1.949 3.691c.885 1.079 1.991 1.949 3.318 2.613Zm9.911-12.4h-10.99c.166-1.741.761-3.11 1.784-4.105 1.023-1.023 2.308-1.535 3.856-1.535 1.383 0 2.585.457 3.608 1.369 1.051.912 1.631 2.336 1.742 4.271Zm22.083-18.578L770.762 382h4.727v-31.517h-4.686Zm23.415 4.893c.553.581 1.258.871 2.115.871.857 0 1.562-.276 2.115-.829.581-.581.871-1.272.871-2.074 0-.802-.29-1.479-.871-2.032-.553-.58-1.258-.871-2.115-.871-.857 0-1.562.291-2.115.871-.553.553-.829 1.23-.829 2.032 0 .774.276 1.452.829 2.032Zm-.207 4.645V382h4.728v-21.979h-4.728Zm28.34 21.44c1.355.636 2.958.954 4.811.954 1.631 0 3.013-.235 4.147-.705 1.133-.498 2.046-1.106 2.737-1.825.691-.719 1.216-1.438 1.576-2.156.387-.719.649-1.314.788-1.784l.207-.746h-4.396l-.249.498c-.138.331-.387.718-.746 1.161-.36.442-.871.843-1.535 1.202-.663.332-1.506.498-2.529.498-1.797 0-3.207-.608-4.23-1.825-1.023-1.216-1.59-2.668-1.7-4.354h15.592v-1.286c0-2.515-.428-4.617-1.285-6.303-.83-1.714-1.991-3-3.484-3.857-1.465-.884-3.165-1.327-5.101-1.327-1.797 0-3.359.332-4.686.995-1.327.636-2.419 1.507-3.276 2.613a11.424 11.424 0 0 0-1.907 3.691 13.945 13.945 0 0 0-.623 4.105c0 1.41.208 2.793.623 4.147a12.108 12.108 0 0 0 1.949 3.691c.884 1.079 1.99 1.949 3.317 2.613Zm9.912-12.4h-10.99c.166-1.741.76-3.11 1.783-4.105 1.023-1.023 2.309-1.535 3.857-1.535 1.382 0 2.585.457 3.608 1.369 1.05.912 1.631 2.336 1.742 4.271Zm21.708-9.04V382h4.727v-10.907c0-2.433.498-4.188 1.493-5.266 1.023-1.106 2.502-1.659 4.438-1.659.525 0 .995.028 1.41.083l.622.083v-4.562l-.581-.083a8.967 8.967 0 0 0-1.327-.083c-1.714 0-3.027.346-3.94 1.037-.884.663-1.534 1.424-1.949 2.281h-.166v-2.903h-4.727Z" clip-rule="evenodd"/>
  <path fill="url(#a)" fill-rule="evenodd" d="M717.048 3.604a3.146 3.146 0 1 1-6.291 0 3.146 3.146 0 0 1 6.291 0Zm-113.767 52.55a5.771 5.771 0 1 0 0-11.542 5.771 5.771 0 0 0 0 11.542Zm109.987 14.94a3 3 0 0 1 1.285 4.043c-7.073 13.656-11.384 32.945-13.905 52.579-2.513 19.565-3.212 39.174-3.212 53.286 0 1.316.003 2.625.009 3.928l.001.066v.062l-.001.021c.119 24.322 1.298 46.216 3.451 61.981 1.081 7.917 2.387 14.133 3.865 18.302.744 2.102 1.466 3.491 2.093 4.3.294.379.493.543.595.609.089-.028.262-.096.527-.259.445-.277.967-.714 1.523-1.289 1.121-1.159 2.078-2.56 2.524-3.365a3 3 0 0 1 5.245 2.914c-.672 1.211-1.932 3.047-3.455 4.622-.765.791-1.672 1.595-2.677 2.218-.981.608-2.273 1.178-3.748 1.178-2.354 0-4.099-1.433-5.277-2.953-1.192-1.538-2.17-3.612-3.006-5.971-1.683-4.751-3.055-11.447-4.154-19.494-2.011-14.732-3.174-34.514-3.451-56.458a255.548 255.548 0 0 1-13.18 9.979c-11.369 8.038-24.218 12.425-35.815 12.707-6.329.155-10.459-2.183-12.924-5.305-.5-.633-.921-1.285-1.274-1.936a57.869 57.869 0 0 1-6.687 5.695c-4.644 3.385-10.499 6.58-16.062 7.025-4.361.349-7.775-.322-10.567-1.577-2.758-1.241-4.726-2.974-6.243-4.412a164.63 164.63 0 0 1-.758-.724l-.012-.011c-1.176-1.126-1.861-1.781-2.617-2.173-.517-.268-1.128-.459-2.503.14-1.759.766-3.444 1.894-5.221 3.27-.887.686-1.768 1.411-2.689 2.17l-.086.071-.002.002c-.884.728-1.806 1.489-2.751 2.225-3.9 3.042-8.604 6.026-14.956 6.026-3.358 0-5.852-.596-7.859-1.527-1.709-.793-2.978-1.804-3.868-2.514l-.349-.277c-.948-.742-1.367-.958-1.863-1.031-.548-.08-1.655-.033-3.939.929-3.974 1.673-6.761 5.779-9.311 10.317-.299.532-.601 1.08-.904 1.631v.002l-.001.001c-.882 1.605-1.773 3.224-2.626 4.481-.588.866-1.287 1.763-2.124 2.463-.853.715-2.047 1.389-3.548 1.389-2.548 0-4.596-1.271-6.105-2.8-1.498-1.517-2.671-3.483-3.576-5.444-.882-1.912-1.583-3.985-2.097-5.954-4.423 3.787-10.214 8.383-16.324 12.426-4.103 2.715-8.407 5.219-12.58 7.061-4.134 1.824-8.349 3.094-12.216 3.126-4.426.037-7.777-.771-10.165-2.432-2.498-1.736-3.555-4.128-3.889-6.355-.06-.401-.097-.799-.116-1.189-2.238 1.965-4.803 4.427-6.866 6.491-2.366 2.365-6.38 5.619-10.666 7.282-2.156.836-4.622 1.365-7.084.949-2.381-.402-4.51-1.648-6.155-3.815-4.126 4.854-10.711 10.205-19.398 11.411-7.814 1.085-13.874-.957-17.218-5.605-2.04-2.835-2.807-6.288-2.553-9.861-7.828 3.503-14.445 5.603-19.969 6.372-5.163.719-9.608.302-13.187-1.43-5.877 11.458-12.234 18.99-18.641 23.72-6.999 5.166-13.927 6.888-20.026 6.833-6.475-.057-11.675-2.981-14.602-8.562-1.213-2.313-1.998-5.008-2.366-8.036-8.108 11.036-20.75 18.644-36.98 25.568-11.266 4.807-27.3 6.51-43.309 5.062-16.024-1.451-32.499-6.101-44.576-14.451a3 3 0 1 1 3.412-4.935c10.95 7.57 26.315 12.017 41.705 13.41 15.405 1.394 30.358-.314 40.414-4.604 21.129-9.016 34.35-18.536 40.157-34.11a3 3 0 0 1 5.76 1.596c-1.521 8.194-.828 14.045 1.096 17.713 1.806 3.443 4.868 5.31 9.342 5.35 4.85.043 10.498-1.298 16.409-5.662 5.952-4.392 12.298-11.945 18.297-24.523a3 3 0 0 1 4.663-.984c2.173 1.868 5.729 2.921 11.604 2.103 5.885-.82 13.68-3.472 23.76-8.463a3.002 3.002 0 0 1 4.124 3.784c-1.746 4.453-1.357 8.252.336 10.606 1.612 2.24 5.066 4.063 11.523 3.166 8.464-1.176 14.764-7.611 17.862-12.273.051-3.797 2.258-6.935 4.741-8.968 2.674-2.189 6.378-3.69 9.687-3.232a3 3 0 1 1-.822 5.943c-1.137-.157-3.214.417-5.064 1.932-1.803 1.476-2.681 3.251-2.523 4.859.065.672.315 1.46.915 2.354.814 1.212 1.69 1.666 2.581 1.816 1.01.171 2.326-.011 3.914-.627 3.204-1.243 6.532-3.869 8.594-5.931 2.239-2.239 5.103-4.986 7.582-7.133 1.23-1.065 2.431-2.04 3.446-2.735.497-.34 1.049-.683 1.598-.928a4.83 4.83 0 0 1 1.069-.346 3.512 3.512 0 0 1 1.935.16c1.595.62 1.938 2.091 2.011 2.543.086.531.041 1.02.013 1.272-.045.41-.143.944-.226 1.393v.001c-.023.123-.045.24-.063.346-.217 1.212-.367 2.406-.206 3.478.144.961.516 1.719 1.379 2.319.972.675 2.913 1.39 6.691 1.358 2.694-.022 6.044-.938 9.843-2.615 3.761-1.66 7.759-3.973 11.692-6.576 7.867-5.205 15.248-11.417 19.613-15.407a3 3 0 0 1 5.015 1.981c.179 2.305 1.055 6.199 2.553 9.445.747 1.62 1.57 2.905 2.397 3.742.658.667 1.178.918 1.572.99.217-.192.538-.559.971-1.198.683-1.006 1.367-2.25 2.194-3.753.331-.601.685-1.245 1.07-1.931 2.49-4.429 6.133-10.347 12.214-12.907 2.743-1.155 5.037-1.643 7.137-1.335 2.152.315 3.628 1.41 4.692 2.243l.117.093.066.051.235.186c.901.712 1.605 1.269 2.624 1.742 1.111.515 2.725.97 5.335.97 4.301 0 7.669-1.952 11.267-4.758.877-.683 1.742-1.396 2.641-2.138l.007-.005.063-.052c.913-.753 1.862-1.535 2.833-2.286 1.938-1.5 4.077-2.972 6.499-4.026 2.871-1.25 5.387-1.144 7.659.034 1.602.83 3.035 2.219 4.181 3.329.2.194.391.379.573.551 1.382 1.31 2.759 2.477 4.576 3.295 1.783.801 4.173 1.345 7.628 1.068 3.881-.31 8.63-2.703 13.006-5.893 3.888-2.834 7.033-5.965 8.573-7.99.05-1.132.184-2.571.453-4.042.34-1.861.966-4.183 2.206-5.939 1.178-1.669 3.164-4.01 5.491-5.645 2.174-1.529 5.81-3.187 9.273-.907 2.607 1.717 2.382 4.761 2.03 6.415-.408 1.91-1.355 3.968-2.363 5.766a38.476 38.476 0 0 1-3.332 4.978 19.832 19.832 0 0 1-1.61 1.812c-.256.25-.541.505-.842.729a4.368 4.368 0 0 1-1.336.696c-.925.278-2.073.355-3.078.362.202.382.446.766.739 1.137 1.2 1.521 3.468 3.137 8.069 3.025 10.262-.25 21.975-4.169 32.497-11.608 7.602-5.375 13.703-10.359 16.584-12.833-.003-.883-.004-1.77-.004-2.659 0-14.278.706-34.157 3.261-54.05 2.545-19.824 6.96-39.962 14.528-54.574a3 3 0 0 1 4.043-1.285Zm-80.437 126.84c.516.012.992.008 1.391-.018.142-.009.265-.02.37-.033l.028-.026c.277-.271.656-.693 1.105-1.256a32.418 32.418 0 0 0 2.791-4.172c.891-1.59 1.504-3.036 1.727-4.083l.012-.056.011-.053.008-.042.007-.039.006-.037.007-.04c-.386.013-1.021.205-2.035.919-1.56 1.096-3.084 2.843-4.039 4.196-.467.66-.907 1.922-1.206 3.559a22.07 22.07 0 0 0-.183 1.181Zm7.493-10.358c.001-.001.003.002.005.012a.528.528 0 0 1 .005.064c-.012-.045-.013-.073-.01-.076Zm67.202 82.735c.001.001-.006-.001-.022-.008.014.003.022.007.022.008ZM145.948 73.788a3 3 0 0 1 2.067 3.705c-4.587 16.17-7.479 43.228-8.683 73.83-1.201 30.527-.713 64.318 1.364 93.817.191 2.717.418 5.502.679 8.34 43.522-30.269 86.039-72.781 109.045-122.425a3 3 0 1 1 5.444 2.522c-24.082 51.967-68.794 95.965-113.813 126.724 2.929 27.541 8.534 58.914 13.924 83.653 2.753 12.637 5.439 23.498 7.672 31.204.815 2.816 1.56 5.175 2.215 7.029a3 3 0 0 1 4.14 2.776c0 1.047-.124 2.264-.422 3.304-.141.492-.385 1.177-.838 1.793-.446.606-1.553 1.701-3.298 1.483-1.161-.145-1.902-.846-2.201-1.157a6.696 6.696 0 0 1-.889-1.204c-.464-.778-.922-1.786-1.372-2.916-.911-2.288-1.96-5.509-3.099-9.439-2.283-7.882-5.002-18.886-7.771-31.596-5.217-23.95-10.646-54.121-13.684-81.157-29.416 19.377-58.772 33.118-82.49 39.654-12.394 3.415-23.441 4.917-32.234 4.105-8.752-.809-15.918-4.002-19.352-10.639-3.067-5.926-2.452-12.802.3-19.53 2.758-6.737 7.787-13.689 14.22-20.213 12.865-13.048 31.859-24.905 51.439-30.258a3 3 0 0 1 1.582 5.788c-18.487 5.054-36.57 16.332-48.748 28.683-6.09 6.175-10.572 12.488-12.94 18.272-2.37 5.795-2.491 10.699-.524 14.501 2.078 4.015 6.753 6.699 14.575 7.421 7.78.719 18.04-.595 30.087-3.914 23.66-6.52 53.477-20.567 83.373-40.6a421.171 421.171 0 0 1-1.006-11.783c-2.093-29.725-2.583-63.736-1.374-94.473 1.207-30.662 4.112-58.33 8.907-75.233a3 3 0 0 1 3.705-2.067Zm646.934 36.617a3 3 0 0 1 2.354 3.411 152.25 152.25 0 0 1-.901 5.154c-.203 2.042-.206 4.055.1 5.66.33 1.725.886 2.347 1.222 2.539 1.361.777 4.064 1.176 7.461 1.131a52.371 52.371 0 0 0 8.44-.841 3 3 0 0 1 1.134 5.891c-3.362.656-11.058 2.751-15.606 5.753-1.488.982-3.088 2.868-4.645 5.327-1.496 2.362-2.794 4.996-3.797 7.256a28.403 28.403 0 0 1-1.403 3.328 3 3 0 0 1-5.467-2.456c.337-.85.769-1.904 1.284-3.076.742-2.155 1.249-4.493 1.28-6.344.028-1.701-.327-2.154-.377-2.218l-.004-.005c-2.677-1.274-6.144-.715-7.908.069a3 3 0 0 1-2.577-5.416 67.252 67.252 0 0 0 5.527-3.188c2.17-1.396 4.07-2.828 5.1-3.977 2.076-2.316 3.185-4.758 4.296-10.325.222-2.071.596-4.006.971-5.477a3 3 0 0 1 3.516-2.196Zm-2.579 19.789a20.582 20.582 0 0 1-1.737 2.215c-.814.908-1.856 1.818-2.979 2.682.351.135.701.285 1.047.454 1.335.649 2.205 1.654 2.764 2.78 1.288-1.646 2.752-3.153 4.383-4.229.384-.254.782-.5 1.193-.74a11.625 11.625 0 0 1-2.292-.977 7.358 7.358 0 0 1-2.379-2.185Zm75.832 28.232a3 3 0 0 1 1.437 3.992c-1.076 2.285-3.309 4.753-6.012 7.103-2.779 2.415-6.322 4.933-10.339 7.273-8.006 4.664-18.161 8.774-28.248 9.836-16.962 1.785-29.312-3.087-35.358-10.098-4.55 4.994-11.904 10.283-28.981 17.789-25.164 11.06-45.949 6.189-56.899-4.59a3 3 0 0 1 1.669-5.106c2.241-.33 5.537-1.392 8.609-2.885 3.191-1.55 5.479-3.248 6.315-4.528a3 3 0 1 1 5.022 3.284c-1.787 2.733-5.376 5.018-8.716 6.641a44.406 44.406 0 0 1-4.303 1.814c9.74 6.303 25.815 8.7 45.889-.123 20.289-8.917 25.614-14.232 29.188-19.064a2.998 2.998 0 0 1 5.076.404c2.99 5.775 13.426 12.435 31.86 10.495 9.003-.948 18.34-4.674 25.857-9.053 3.744-2.181 6.97-4.486 9.423-6.618 2.527-2.196 3.987-3.998 4.519-5.129a3 3 0 0 1 3.992-1.437Zm-550.43 25.132a3 3 0 0 1 1.796 3.653 69.918 69.918 0 0 1-2.088 5.913c-.046.218-.088.435-.124.65-.348 2.042-.223 3.675.278 4.827.438 1.008 1.276 1.925 3.122 2.459 1.981.573 5.13.689 9.936-.294a3 3 0 0 1 1.619 5.761c-4.039 1.458-10.676 4.073-15.816 7.798-3.75 2.719-6.703 5.949-8.529 9.463a73.735 73.735 0 0 1-2.039 6.235 3 3 0 0 1-5.769-1.524c.372-2.416 1.124-4.716 2.181-6.881.326-1.215.616-2.45.835-3.635.324-1.75.463-3.231.396-4.307-.034-.545-.109-.831-.152-.957-.335-.196-.892-.423-1.727-.62-.962-.228-2.108-.373-3.34-.448a38.817 38.817 0 0 0-4.317 0c-.927.107-1.76.172-2.454.204a3 3 0 0 1-.491-5.975c.68-.081 1.509-.156 2.429-.209a39.926 39.926 0 0 0 5.18-.966c2.957-.766 5.537-1.863 7.055-3.229 1.583-1.425 3.292-4.224 4.828-7.516.412-.881.797-1.768 1.152-2.633.518-2.202 1.337-4.356 2.255-6.269a3 3 0 0 1 3.784-1.5Zm-4.956 18.742c-.933 1.387-1.952 2.648-3.049 3.635-.827.745-1.766 1.393-2.766 1.958l.119.085c1.549 1.127 2.124 2.876 2.338 4.349a39.907 39.907 0 0 1 3.516-2.86 48.648 48.648 0 0 1 4.861-3.073c-2.23-.892-3.905-2.301-5.019-4.094Zm-222.744-1.772a3 3 0 0 1 3.308 2.593c.1.764.192 1.502.275 2.216.257 1.7.663 3.692 1.23 5.514.416 1.332.884 2.46 1.377 3.289.525.881.888 1.102.941 1.125 2.758 1.218 6.234 1.013 7.529.749a3.001 3.001 0 0 1 1.802 5.688c-.652.286-1.856.919-3.109 1.81-1.27.903-2.406 1.942-3.11 2.989-.102.153-.298.603-.395 1.531-.093.882-.072 1.959.043 3.143.232 2.371.81 4.828 1.265 6.33a3 3 0 0 1-5.687 1.904c-.704-1.917-1.928-4.828-3.286-7.288-.682-1.238-1.345-2.264-1.937-2.977-.404-.487-.641-.665-.704-.714-.891-.166-1.973-.136-3.067.028-1.144.172-2.102.461-2.558.636a2.999 2.999 0 0 1-2.761-5.282c1.178-.8 4.004-3.259 5.405-6.162 1.532-3.174 1.693-6.039 1.066-11.572a43.36 43.36 0 0 1-.28-2.29 3 3 0 0 1 2.653-3.26Zm2.468 18.608a18.537 18.537 0 0 1-1.817 3.398c.106.02.213.041.32.064 1.48.322 2.645 1.324 3.466 2.224a7.429 7.429 0 0 1 .826-1.667c.407-.606.867-1.175 1.355-1.706a15.486 15.486 0 0 1-1.91-.695c-.884-.39-1.623-.968-2.24-1.618ZM27.658 384.635a5.772 5.772 0 1 1-11.543 0 5.772 5.772 0 0 1 11.543 0Zm10.33-37.504a2.75 2.75 0 1 0 0-5.5 2.75 2.75 0 0 0 0 5.5Zm60.554 52.587a3.743 3.743 0 1 1-7.487 0 3.743 3.743 0 0 1 7.487 0ZM860.678 34.684a2.882 2.882 0 1 0 0-5.764 2.882 2.882 0 0 0 0 5.764Zm-75.523-8.15a8.51 8.51 0 1 1-17.02 0 8.51 8.51 0 0 1 17.02 0ZM359.051 350.483V382h4.727v-10.367L372.28 382h5.847l-9.87-11.943 9.58-10.036h-5.806l-8.253 8.75v-18.288h-4.727Zm36.092 4.893c.552.581 1.257.871 2.114.871.858 0 1.563-.276 2.115-.829.581-.581.871-1.272.871-2.074 0-.802-.29-1.479-.871-2.032-.552-.58-1.257-.871-2.115-.871-.857 0-1.562.291-2.114.871-.553.553-.83 1.23-.83 2.032 0 .774.277 1.452.83 2.032Zm-.208 4.645V382h4.728v-21.979h-4.728Zm22.825 0V382h4.727v-10.907c0-2.433.498-4.188 1.493-5.266 1.023-1.106 2.502-1.659 4.438-1.659.525 0 .995.028 1.41.083l.622.083v-4.562l-.581-.083a8.967 8.967 0 0 0-1.327-.083c-1.714 0-3.027.346-3.94 1.037-.884.663-1.534 1.424-1.949 2.281h-.166v-2.903h-4.727Zm40.314.249c-.913-.443-2.06-.664-3.442-.664-1.659 0-3.111.332-4.355.995a9.02 9.02 0 0 0-3.069 2.613 11.42 11.42 0 0 0-1.866 3.649 15.026 15.026 0 0 0-.58 4.147c0 1.41.193 2.793.58 4.147a11.924 11.924 0 0 0 1.866 3.691 9.67 9.67 0 0 0 3.069 2.613c1.244.636 2.696.954 4.355.954 1.382 0 2.529-.221 3.442-.664.94-.442 1.686-.954 2.239-1.534.553-.581.954-1.078 1.203-1.493h.248V382h4.728v-21.979h-4.728v3.276h-.248c-.249-.415-.65-.912-1.203-1.493-.553-.58-1.299-1.092-2.239-1.534Zm-5.806 4.396c.912-.747 2.046-1.12 3.4-1.12 1.355 0 2.475.373 3.359 1.12.913.718 1.59 1.645 2.032 2.778a9.22 9.22 0 0 1 .705 3.566 9.222 9.222 0 0 1-.705 3.567 6.74 6.74 0 0 1-2.032 2.82c-.884.719-2.004 1.078-3.359 1.078-1.354 0-2.488-.359-3.4-1.078a7.085 7.085 0 0 1-2.074-2.82 9.732 9.732 0 0 1-.663-3.567 9.73 9.73 0 0 1 .663-3.566c.47-1.133 1.161-2.06 2.074-2.778Zm31.784-4.645V382h4.728v-12.524c0-.912.152-1.811.456-2.695.304-.913.788-1.673 1.451-2.281.691-.609 1.59-.913 2.696-.913 1.354 0 2.377.456 3.068 1.369.692.912 1.037 2.087 1.037 3.525V382h4.728v-12.524c0-.912.152-1.811.456-2.695.304-.913.788-1.673 1.451-2.281.692-.609 1.59-.913 2.696-.913 1.355 0 2.378.456 3.069 1.369.691.912 1.036 2.087 1.036 3.525V382h4.728v-14.183c0-1.548-.276-2.93-.829-4.147-.526-1.244-1.327-2.225-2.406-2.944-1.078-.747-2.391-1.12-3.939-1.12-1.825 0-3.29.429-4.396 1.286-1.106.857-1.949 1.838-2.53 2.944h-.083c-.525-1.272-1.327-2.295-2.405-3.069-1.078-.774-2.433-1.161-4.064-1.161-1.216 0-2.226.208-3.027.622-.802.387-1.452.857-1.949 1.41-.47.553-.83 1.051-1.079 1.493h-.165v-3.11h-4.728Zm54.516 21.44c1.355.636 2.959.954 4.811.954 1.631 0 3.013-.235 4.147-.705 1.133-.498 2.046-1.106 2.737-1.825.691-.719 1.216-1.438 1.576-2.156.387-.719.65-1.314.788-1.784l.207-.746h-4.396l-.248.498c-.139.331-.388.718-.747 1.161-.359.442-.871.843-1.534 1.202-.664.332-1.507.498-2.53.498-1.797 0-3.207-.608-4.23-1.825-1.023-1.216-1.59-2.668-1.7-4.354h15.593v-1.286c0-2.515-.429-4.617-1.286-6.303-.829-1.714-1.991-3-3.484-3.857-1.465-.884-3.165-1.327-5.1-1.327-1.797 0-3.359.332-4.686.995-1.328.636-2.42 1.507-3.277 2.613a11.424 11.424 0 0 0-1.907 3.691 13.944 13.944 0 0 0-.622 4.105c0 1.41.207 2.793.622 4.147a12.108 12.108 0 0 0 1.949 3.691c.885 1.079 1.99 1.949 3.317 2.613Zm9.912-12.4h-10.99c.166-1.741.76-3.11 1.783-4.105 1.023-1.023 2.309-1.535 3.857-1.535 1.383 0 2.585.457 3.608 1.369 1.051.912 1.631 2.336 1.742 4.271Zm22.042-18.578V382h4.727v-10.367L583.751 382h5.847l-9.87-11.943 9.58-10.036h-5.806l-8.253 8.75v-18.288h-4.727Zm36.092 4.893c.553.581 1.258.871 2.115.871.857 0 1.562-.276 2.115-.829.58-.581.87-1.272.87-2.074 0-.802-.29-1.479-.87-2.032-.553-.58-1.258-.871-2.115-.871-.857 0-1.562.291-2.115.871-.553.553-.83 1.23-.83 2.032 0 .774.277 1.452.83 2.032Zm-.208 4.645V382h4.728v-21.979h-4.728Zm31.202 8.087c.553.58 1.258.87 2.115.87.857 0 1.562-.29 2.115-.87.58-.581.871-1.286.871-2.115a2.88 2.88 0 0 0-.871-2.115c-.553-.581-1.258-.871-2.115-.871-.857 0-1.562.29-2.115.871-.553.58-.829 1.285-.829 2.115 0 .801.276 1.506.829 2.115Zm41.157-7.838c-.912-.443-2.059-.664-3.442-.664-1.659 0-3.11.332-4.354.995a9.001 9.001 0 0 0-3.069 2.613 11.42 11.42 0 0 0-1.866 3.649 15.027 15.027 0 0 0-.581 4.147c0 1.41.194 2.793.581 4.147a11.924 11.924 0 0 0 1.866 3.691 9.649 9.649 0 0 0 3.069 2.613c1.244.636 2.695.954 4.354.954 1.383 0 2.53-.221 3.442-.664.94-.442 1.687-.954 2.24-1.534.553-.581.953-1.078 1.202-1.493h.249V382h4.728v-21.979h-4.728v3.276h-.249c-.249-.415-.649-.912-1.202-1.493-.553-.58-1.3-1.092-2.24-1.534Zm-5.806 4.396c.913-.747 2.046-1.12 3.401-1.12s2.474.373 3.359 1.12c.912.718 1.59 1.645 2.032 2.778a9.22 9.22 0 0 1 .705 3.566 9.222 9.222 0 0 1-.705 3.567 6.748 6.748 0 0 1-2.032 2.82c-.885.719-2.004 1.078-3.359 1.078s-2.488-.359-3.401-1.078a7.092 7.092 0 0 1-2.073-2.82 9.732 9.732 0 0 1-.664-3.567c0-1.244.222-2.432.664-3.566.47-1.133 1.161-2.06 2.073-2.778Zm36.529 16.795c1.05.636 2.446.954 4.188.954.913 0 1.7-.056 2.364-.166l1.037-.166v-3.857l-.747.125a9.835 9.835 0 0 1-1.617.124c-2.295 0-3.442-1.037-3.442-3.11v-11.529h5.142v-3.815h-5.142v-5.474h-4.728v5.474h-3.856v3.815h3.856v11.612c0 1.244.222 2.405.664 3.483.47 1.051 1.23 1.894 2.281 2.53Zm29.321 0c1.354.636 2.958.954 4.81.954 1.631 0 3.014-.235 4.147-.705 1.134-.498 2.046-1.106 2.737-1.825.691-.719 1.217-1.438 1.576-2.156.387-.719.65-1.314.788-1.784l.207-.746h-4.396l-.248.498c-.139.331-.387.718-.747 1.161-.359.442-.871.843-1.534 1.202-.664.332-1.507.498-2.53.498-1.797 0-3.207-.608-4.23-1.825-1.023-1.216-1.59-2.668-1.7-4.354h15.593v-1.286c0-2.515-.429-4.617-1.286-6.303-.829-1.714-1.991-3-3.483-3.857-1.466-.884-3.166-1.327-5.101-1.327-1.797 0-3.359.332-4.686.995-1.327.636-2.419 1.507-3.276 2.613a11.446 11.446 0 0 0-1.908 3.691 13.944 13.944 0 0 0-.622 4.105c0 1.41.207 2.793.622 4.147a12.108 12.108 0 0 0 1.949 3.691c.885 1.079 1.991 1.949 3.318 2.613Zm9.911-12.4h-10.99c.166-1.741.761-3.11 1.784-4.105 1.023-1.023 2.308-1.535 3.856-1.535 1.383 0 2.585.457 3.608 1.369 1.051.912 1.631 2.336 1.742 4.271Zm22.083-18.578L770.762 382h4.727v-31.517h-4.686Zm23.415 4.893c.553.581 1.258.871 2.115.871.857 0 1.562-.276 2.115-.829.581-.581.871-1.272.871-2.074 0-.802-.29-1.479-.871-2.032-.553-.58-1.258-.871-2.115-.871-.857 0-1.562.291-2.115.871-.553.553-.829 1.23-.829 2.032 0 .774.276 1.452.829 2.032Zm-.207 4.645V382h4.728v-21.979h-4.728Zm28.34 21.44c1.355.636 2.958.954 4.811.954 1.631 0 3.013-.235 4.147-.705 1.133-.498 2.046-1.106 2.737-1.825.691-.719 1.216-1.438 1.576-2.156.387-.719.649-1.314.788-1.784l.207-.746h-4.396l-.249.498c-.138.331-.387.718-.746 1.161-.36.442-.871.843-1.535 1.202-.663.332-1.506.498-2.529.498-1.797 0-3.207-.608-4.23-1.825-1.023-1.216-1.59-2.668-1.7-4.354h15.592v-1.286c0-2.515-.428-4.617-1.285-6.303-.83-1.714-1.991-3-3.484-3.857-1.465-.884-3.165-1.327-5.101-1.327-1.797 0-3.359.332-4.686.995-1.327.636-2.419 1.507-3.276 2.613a11.424 11.424 0 0 0-1.907 3.691 13.945 13.945 0 0 0-.623 4.105c0 1.41.208 2.793.623 4.147a12.108 12.108 0 0 0 1.949 3.691c.884 1.079 1.99 1.949 3.317 2.613Zm9.912-12.4h-10.99c.166-1.741.76-3.11 1.783-4.105 1.023-1.023 2.309-1.535 3.857-1.535 1.382 0 2.585.457 3.608 1.369 1.05.912 1.631 2.336 1.742 4.271Zm21.708-9.04V382h4.727v-10.907c0-2.433.498-4.188 1.493-5.266 1.023-1.106 2.502-1.659 4.438-1.659.525 0 .995.028 1.41.083l.622.083v-4.562l-.581-.083a8.967 8.967 0 0 0-1.327-.083c-1.714 0-3.027.346-3.94 1.037-.884.663-1.534 1.424-1.949 2.281h-.166v-2.903h-4.727Z" clip-rule="evenodd"/>
  <defs>
    <linearGradient id="a" x1=".307" x2="878.809" y1=".458" y2="23.322" gradientUnits="userSpaceOnUse">
      <stop stop-color="#0F7AF8"/>
      <stop offset=".324" stop-color="#4111F8"/>
      <stop offset=".632" stop-color="#C32EF8"/>
      <stop offset="1" stop-color="#FF5995"/>
    </linearGradient>
  </defs>
</svg>
