<svg width="59" height="59" viewBox="0 0 59 59" fill="none" xmlns="http://www.w3.org/2000/svg">
<path d="M29.5 55.375C26.102 55.375 22.7374 54.7057 19.5981 53.4054C16.4588 52.105 13.6063 50.1991 11.2036 47.7964C8.8009 45.3937 6.89496 42.5412 5.59462 39.4019C4.29428 36.2626 3.625 32.898 3.625 29.5C3.625 26.102 4.29428 22.7374 5.59462 19.5981C6.89496 16.4588 8.8009 13.6063 11.2036 11.2036C13.6063 8.8009 16.4588 6.89496 19.5981 5.59462C22.7374 4.29428 26.102 3.625 29.5 3.625C36.3625 3.625 42.9439 6.04821 47.7964 10.3615C52.6489 14.6749 55.375 20.525 55.375 26.625C55.375 29.675 54.0119 32.6001 51.5857 34.7567C49.1594 36.9134 45.8687 38.125 42.4375 38.125H35.25C33.9673 38.1043 32.7146 38.5132 31.6911 39.2865C30.6676 40.0598 29.932 41.1532 29.6015 42.3927C29.271 43.6322 29.3644 44.9466 29.867 46.1269C30.3696 47.3072 31.2524 48.2855 32.375 48.9062C32.949 49.4359 33.3427 50.1321 33.5007 50.8971C33.6587 51.662 33.573 52.4572 33.2558 53.171C32.9386 53.8847 32.4057 54.4812 31.7321 54.8765C31.0584 55.2718 30.2778 55.4461 29.5 55.375" stroke="#2945F8" stroke-width="5.75" stroke-linecap="round" stroke-linejoin="round"/>
<path d="M16.5625 26.625C17.3564 26.625 18 25.9814 18 25.1875C18 24.3936 17.3564 23.75 16.5625 23.75C15.7686 23.75 15.125 24.3936 15.125 25.1875C15.125 25.9814 15.7686 26.625 16.5625 26.625Z" fill="#2945F8" stroke="#2945F8" stroke-width="5.75" stroke-linecap="round" stroke-linejoin="round"/>
<path d="M29.5 18C30.2939 18 30.9375 17.3564 30.9375 16.5625C30.9375 15.7686 30.2939 15.125 29.5 15.125C28.7061 15.125 28.0625 15.7686 28.0625 16.5625C28.0625 17.3564 28.7061 18 29.5 18Z" fill="#2945F8" stroke="#2945F8" stroke-width="5.75" stroke-linecap="round" stroke-linejoin="round"/>
<path d="M42.4375 26.625C43.2314 26.625 43.875 25.9814 43.875 25.1875C43.875 24.3936 43.2314 23.75 42.4375 23.75C41.6436 23.75 41 24.3936 41 25.1875C41 25.9814 41.6436 26.625 42.4375 26.625Z" fill="#2945F8" stroke="#2945F8" stroke-width="5.75" stroke-linecap="round" stroke-linejoin="round"/>
</svg>
