<svg width="59" height="59" viewBox="0 0 59 59" fill="none" xmlns="http://www.w3.org/2000/svg">
<path d="M12.25 3.625H6.5C4.91218 3.625 3.625 4.91218 3.625 6.5V12.25C3.625 13.8378 4.91218 15.125 6.5 15.125H12.25C13.8378 15.125 15.125 13.8378 15.125 12.25V6.5C15.125 4.91218 13.8378 3.625 12.25 3.625Z" stroke="#4A14F8" stroke-width="5.75" stroke-linecap="round" stroke-linejoin="round"/>
<path d="M52.5 43.875H46.75C45.1622 43.875 43.875 45.1622 43.875 46.75V52.5C43.875 54.0878 45.1622 55.375 46.75 55.375H52.5C54.0878 55.375 55.375 54.0878 55.375 52.5V46.75C55.375 45.1622 54.0878 43.875 52.5 43.875Z" stroke="#4A14F8" stroke-width="5.75" stroke-linecap="round" stroke-linejoin="round"/>
<path d="M15.125 9.375H35.25" stroke="#4A14F8" stroke-width="5.75" stroke-linecap="round" stroke-linejoin="round"/>
<path d="M23.75 49.625H43.875" stroke="#4A14F8" stroke-width="5.75" stroke-linecap="round" stroke-linejoin="round"/>
<path d="M20.875 52.5C22.4628 52.5 23.75 51.2128 23.75 49.625C23.75 48.0372 22.4628 46.75 20.875 46.75C19.2872 46.75 18 48.0372 18 49.625C18 51.2128 19.2872 52.5 20.875 52.5Z" stroke="#4A14F8" stroke-width="5.75" stroke-linecap="round" stroke-linejoin="round"/>
<path d="M38.125 12.25C39.7128 12.25 41 10.9628 41 9.375C41 7.78718 39.7128 6.5 38.125 6.5C36.5372 6.5 35.25 7.78718 35.25 9.375C35.25 10.9628 36.5372 12.25 38.125 12.25Z" stroke="#4A14F8" stroke-width="5.75" stroke-linecap="round" stroke-linejoin="round"/>
<path d="M15.125 10.8125C17.0128 10.8125 18.882 11.2959 20.6261 12.235C22.3701 13.1741 23.9548 14.5506 25.2897 16.2859C26.6245 18.0212 27.6834 20.0813 28.4058 22.3486C29.1282 24.6159 29.5 27.0459 29.5 29.5C29.5 34.4562 31.0145 39.2095 33.7103 42.7141C36.4062 46.2186 40.0625 48.1875 43.875 48.1875" stroke="#4A14F8" stroke-width="5.75" stroke-linecap="round" stroke-linejoin="round"/>
</svg>
