<svg width="56" height="56" viewBox="0 0 56 56" fill="none" xmlns="http://www.w3.org/2000/svg">
<path d="M12.125 15.125H9.25C7.72501 15.125 6.26247 15.7308 5.18414 16.8091C4.1058 17.8875 3.5 19.35 3.5 20.875V46.75C3.5 48.275 4.1058 49.7375 5.18414 50.8159C6.26247 51.8942 7.72501 52.5 9.25 52.5H35.125C36.65 52.5 38.1125 51.8942 39.1909 50.8159C40.2692 49.7375 40.875 48.275 40.875 46.75V43.875" stroke="#E143C8" stroke-width="5.75" stroke-linecap="round" stroke-linejoin="round"/>
<path d="M50.6069 13.9318C51.7392 12.7995 52.3753 11.2638 52.3753 9.66244C52.3753 8.06111 51.7392 6.52537 50.6069 5.39307C49.4746 4.26076 47.9388 3.62463 46.3375 3.62463C44.7362 3.62463 43.2004 4.26076 42.0681 5.39307L17.875 29.4999V38.1249H26.5L50.6069 13.9318Z" stroke="#E143C8" stroke-width="5.75" stroke-linecap="round" stroke-linejoin="round"/>
<path d="M38 9.375L46.625 18" stroke="#E143C8" stroke-width="5.75" stroke-linecap="round" stroke-linejoin="round"/>
</svg>
